# Blender v2.69 (sub 0) OBJ File: ''
# www.blender.org
mtllib untitled.mtl
o Plane
v -0.182353 0.370809 -0.891973
v 0.374241 0.370809 -0.891973
v -0.180180 0.243789 -0.955554
v -0.188716 0.471132 -0.710645
v 0.367878 0.451572 -0.710645
v -0.161033 0.460419 -0.419874
v 0.395561 0.430798 -0.419874
v -0.122814 0.287886 -0.267640
v 0.395561 0.321461 -0.235789
v -0.161033 -0.010239 -0.074207
v 0.395561 -0.010239 -0.074207
v 0.896581 0.479504 -0.440631
v 0.918144 0.479504 0.115546
v 0.996092 0.379752 0.083487
v 0.733115 0.509495 -0.434293
v 0.754678 0.489934 0.121883
v 0.463397 0.460419 -0.423836
v 0.484959 0.430798 0.132340
v 0.312758 0.287885 -0.379748
v 0.301013 0.321461 0.139471
v 0.117989 -0.010239 -0.410445
v 0.139552 -0.010239 0.145731
v 0.990034 0.369029 0.087423
v 0.632661 0.369029 0.597090
v 0.664159 0.209175 0.562785
v 0.858050 0.483061 0.019476
v 0.500677 0.461184 0.529143
v 0.583227 0.473250 -0.160991
v 0.225854 0.440123 0.348676
v 0.419289 0.280295 -0.223738
v 0.057290 0.317844 0.230481
v 0.266704 -0.053116 -0.382933
v -0.090669 -0.053116 0.126734
v 0.307455 0.472432 0.696963
v -0.216048 0.472432 0.648720
v 0.298948 0.402900 0.789280
v 0.321634 0.500760 0.543100
v -0.201868 0.482284 0.494857
v 0.345030 0.454405 0.289226
v -0.178473 0.426428 0.240983
v 0.322278 0.291442 0.142731
v -0.162517 0.323155 0.067843
v 0.374990 0.009855 -0.035890
v -0.148512 0.009855 -0.084133
v -0.307098 0.491827 0.764824
v -0.702527 0.491828 0.299829
v -0.389098 0.411097 0.834556
v -0.170431 0.524718 0.648603
v -0.565860 0.503266 0.183609
v 0.055069 0.470897 0.456839
v -0.340360 0.438413 -0.008155
v 0.155096 0.281687 0.316756
v -0.186571 0.318507 -0.138937
v 0.343848 -0.045255 0.211262
v -0.051581 -0.045255 -0.253733
v -0.870872 0.393996 0.286312
v -0.870255 0.393996 -0.382090
v -1.000941 0.256980 0.310278
v -0.659724 0.516823 0.239913
v -0.659107 0.493333 -0.428489
v -0.311768 0.482195 0.237151
v -0.311150 0.446624 -0.431251
v -0.128911 0.275003 0.191424
v -0.090087 0.315323 -0.431046
v 0.103336 -0.083008 0.237535
v 0.103954 -0.083008 -0.430867
v -0.760111 0.491752 -0.373082
v -0.378167 0.491752 -0.848791
v -0.844001 0.411065 -0.440437
v -0.620296 0.524624 -0.260825
v -0.238352 0.503184 -0.736534
v -0.389600 0.470833 -0.075601
v -0.007656 0.438367 -0.551309
v -0.233263 0.281725 -0.003801
v 0.149676 0.318526 -0.424987
v -0.094167 -0.045040 0.161601
v 0.287777 -0.045040 -0.314107
v -0.390433 0.651348 0.127542
v -0.318416 0.689130 -0.345365
v -0.490814 0.622995 0.109990
v -0.250913 0.624361 0.146633
v -0.184758 0.646477 -0.328418
v -0.050241 0.500895 0.167328
v 0.012899 0.514954 -0.308826
v 0.024470 0.317844 0.130648
v 0.127019 0.369990 -0.303029
v 0.084529 0.016173 0.149126
v 0.156546 0.053956 -0.323781
v -0.331398 0.651348 -0.390450
v 0.100310 0.689130 -0.596498
v -0.373260 0.622995 -0.483358
v -0.268825 0.624361 -0.264296
v 0.161365 0.646477 -0.476397
v -0.173231 0.500895 -0.086647
v 0.256178 0.514954 -0.301862
v -0.100918 0.317843 -0.045438
v 0.315482 0.369990 -0.204190
v -0.082471 0.016174 0.014630
v 0.349237 0.053956 -0.191417
v 0.258361 0.651348 -0.580960
v 0.616844 0.689130 -0.264231
v 0.664174 0.631944 -0.348876
v 0.178883 0.638771 -0.453214
v 0.542343 0.660887 -0.140250
v 0.040621 0.500895 -0.316569
v 0.406642 0.514954 -0.005542
v 0.030977 0.317843 -0.233900
v 0.339945 0.369990 0.087240
v -0.017091 0.016174 -0.193428
v 0.341392 0.053956 0.123302
v 0.646516 0.609429 -0.101967
v 0.471818 0.647211 0.343351
v 0.737271 0.536537 -0.044630
v 0.508461 0.624361 -0.163722
v 0.339007 0.646477 0.284982
v 0.317318 0.500895 -0.228232
v 0.150560 0.514954 0.222213
v 0.236349 0.317843 -0.208961
v 0.040540 0.369990 0.191351
v 0.181855 0.016174 -0.240249
v 0.007158 0.053956 0.205069
v 0.403527 0.617532 0.358831
v -0.070215 0.655314 0.425138
v -0.027691 0.574716 0.508703
v 0.371368 0.624361 0.204806
v -0.102751 0.646477 0.277343
v 0.333780 0.500895 0.006603
v -0.140533 0.514954 0.082344
v 0.277256 0.317843 -0.054490
v -0.167631 0.369990 -0.028663
v 0.277777 0.016174 -0.117325
v -0.195965 0.053956 -0.051018
v 0.347399 0.217652 -0.936532
v 0.994661 0.405889 -0.444433
v 1.020320 0.238406 0.091901
v -0.195616 0.378213 0.725661
v -0.748022 0.382433 0.380288
v -0.977512 0.225592 -0.323260
v -0.465710 0.382417 -0.878293
v -0.415205 0.631944 -0.339292
v 0.040919 0.631944 -0.673164
v 0.327495 0.622995 -0.655826
v 0.564289 0.545486 0.376854
v 0.424440 0.565767 0.452597
vt 0.261788 0.894097
vt 0.741905 0.894097
vt 0.261788 0.999931
vt 0.741905 0.750634
vt 0.261788 0.750634
vt 0.261788 0.513983
vt 0.741905 0.513983
vt 0.261788 0.307545
vt 0.741905 0.307545
vt 0.261788 0.000069
vt 0.741905 0.000069
vt 0.741905 0.999931
vn 0.012855 0.702589 -0.711480
vn 0.020732 0.682092 -0.730972
vn 0.008461 0.417824 -0.908489
vn 0.028439 0.982150 -0.185937
vn 0.034117 0.970789 -0.237496
vn -0.002207 0.931440 0.363888
vn 0.050601 0.950827 0.305562
vn -0.060083 0.579991 0.812404
vn -0.036407 0.647885 0.760867
vn 0.000000 0.544301 0.838890
vn -0.051674 0.478792 0.876406
vn 0.409433 0.911975 0.025820
vn 0.432660 0.901401 -0.016774
vn 0.762542 0.646574 -0.021720
vn -0.002868 0.999129 0.041641
vn -0.064454 0.997653 0.023118
vn -0.440352 0.897598 0.020203
vn -0.361751 0.930511 0.057321
vn -0.797575 0.600532 -0.056874
vn -0.745923 0.665755 0.019210
vn -0.861810 0.506879 -0.018911
vn -0.898330 0.437938 0.034828
vn 0.698877 0.494698 0.516571
vn 0.674568 0.550363 0.491994
vn 0.814112 0.058463 0.577758
vn 0.238388 0.950317 0.200173
vn 0.172156 0.971588 0.162417
vn -0.299823 0.931658 -0.205230
vn -0.266366 0.954738 -0.132377
vn -0.600373 0.600532 -0.528123
vn -0.605323 0.665755 -0.436296
vn -0.674482 0.506879 -0.536795
vn -0.736082 0.437938 -0.516133
vn -0.036781 0.916157 0.399127
vn -0.080792 0.901377 0.425433
vn -0.066235 0.776405 0.626744
vn -0.025630 0.999517 -0.017562
vn -0.027887 0.996484 -0.079013
vn -0.003981 0.883193 -0.468994
vn 0.045600 0.915905 -0.398797
vn 0.083440 0.617117 -0.782435
vn 0.155535 0.675402 -0.720862
vn 0.076981 0.544301 -0.835350
vn 0.131880 0.478792 -0.867966
vn -0.305340 0.916157 0.259660
vn -0.355198 0.901376 0.247699
vn -0.485532 0.776405 0.401813
vn -0.005901 0.999735 -0.022262
vn 0.027202 0.996628 -0.077408
vn 0.333576 0.880863 -0.335867
vn 0.311027 0.913830 -0.261107
vn 0.606682 0.617117 -0.501103
vn 0.615182 0.675402 -0.406675
vn 0.639058 0.544301 -0.543452
vn 0.701114 0.478792 -0.528391
vn -0.626413 0.779411 -0.011191
vn -0.616844 0.786826 -0.020212
vn -0.752473 0.658519 -0.011713
vn -0.232741 0.971931 -0.034372
vn -0.149447 0.988316 -0.029964
vn 0.432196 0.900875 -0.040380
vn 0.368829 0.929494 0.002640
vn 0.786780 0.617117 0.012015
vn 0.732011 0.675402 0.089405
vn 0.838890 0.544301 0.000775
vn 0.876358 0.478792 0.052484
vn -0.312545 0.916158 -0.250940
vn -0.310193 0.901377 -0.302159
vn -0.486105 0.776406 -0.401118
vn 0.020751 0.999735 -0.009990
vn 0.081147 0.996628 0.012128
vn 0.392708 0.880863 0.264311
vn 0.315037 0.913830 0.256253
vn 0.606446 0.617116 0.501389
vn 0.515311 0.675401 0.527530
vn 0.654138 0.544301 0.525204
vn 0.651040 0.478792 0.588987
vn -0.039775 0.997474 0.058850
vn -0.070237 0.996573 0.043686
vn -0.312105 0.949841 0.019791
vn 0.351994 0.931432 0.092382
vn 0.406484 0.907365 0.107048
vn 0.748746 0.650835 0.125675
vn 0.693125 0.701855 0.164247
vn 0.941037 0.287841 0.177757
vn 0.899049 0.355671 0.255359
vn 0.965639 0.202244 0.163211
vn 0.969835 0.123750 0.210012
vn -0.071031 0.997474 0.000148
vn -0.075595 0.996573 -0.033572
vn -0.191682 0.949841 -0.247103
vn 0.121282 0.931432 0.343110
vn 0.139756 0.907365 0.396430
vn 0.316592 0.650834 0.690061
vn 0.253438 0.701855 0.665709
vn 0.381511 0.287841 0.878406
vn 0.293723 0.355672 0.887257
vn 0.407364 0.202244 0.890591
vn 0.371001 0.123750 0.920350
vn 0.044234 0.993375 -0.106067
vn 0.014814 0.990742 -0.134950
vn 0.269318 0.877153 -0.397581
vn -0.255863 0.938756 0.230808
vn -0.302616 0.912423 0.275514
vn -0.551142 0.636803 0.539188
vn -0.469665 0.713108 0.520473
vn -0.716183 0.263529 0.646246
vn -0.648158 0.347864 0.677408
vn -0.701161 0.155572 0.695824
vn -0.664725 0.081693 0.742608
vn 0.327621 0.942672 0.063509
vn 0.362827 0.927658 0.088361
vn 0.580440 0.796368 0.169962
vn -0.204470 0.971746 -0.117907
vn -0.237238 0.959493 -0.151956
vn -0.667234 0.674669 -0.315626
vn -0.624388 0.736291 -0.260797
vn -0.852549 0.263529 -0.451346
vn -0.858511 0.347864 -0.376761
vn -0.893976 0.155572 -0.420243
vn -0.925441 0.081693 -0.369981
vn 0.088102 0.954684 0.284283
vn 0.097973 0.957033 0.272927
vn 0.140894 0.767980 0.624784
vn 0.011773 0.963813 -0.266319
vn -0.005890 0.945122 -0.326664
vn -0.052411 0.674670 -0.736257
vn -0.079159 0.736291 -0.672019
vn -0.025092 0.263529 -0.964325
vn -0.093005 0.347864 -0.932920
vn -0.072522 0.155572 -0.985159
vn -0.131756 0.081693 -0.987910
vn 0.048099 0.271251 -0.961306
vn 0.600796 0.798503 0.037906
vn 0.775369 0.200310 0.598898
vn -0.130986 0.609868 0.781603
vn -0.640095 0.609869 0.467267
vn -0.851021 0.521993 -0.057333
vn -0.579512 0.609869 -0.540579
vn -0.510674 0.857011 -0.068870
vn -0.229864 0.857011 -0.461188
vn 0.166660 0.963199 -0.210883
vn 0.670238 0.694993 0.260318
vn 0.075609 0.879987 0.468941
usemtl None
s 1
f 1/1/1 2/2/2 3/3/3
f 5/4/4 1/1/1 4/5/5
f 6/6/6 7/7/7 5/4/4
f 8/8/8 9/9/9 6/6/6
f 10/10/10 11/11/11 8/8/8
f 12/1/12 13/2/13 14/12/14
f 15/5/15 16/4/16 12/1/12
f 17/6/17 18/7/18 15/5/15
f 19/8/19 20/9/20 17/6/17
f 21/10/21 22/11/22 20/9/20
f 23/1/23 24/2/24 25/12/25
f 26/5/26 27/4/27 24/2/24
f 28/6/28 29/7/29 26/5/26
f 30/8/30 31/9/31 28/6/28
f 32/10/32 33/11/33 31/9/31
f 34/1/34 35/2/35 36/3/36
f 37/5/37 38/4/38 35/2/35
f 39/6/39 40/7/40 37/5/37
f 41/8/41 42/9/42 40/7/40
f 43/10/43 44/11/44 41/8/41
f 45/1/45 46/2/46 47/3/47
f 48/5/48 49/4/49 46/2/46
f 50/6/50 51/7/51 49/4/49
f 52/8/52 53/9/53 51/7/51
f 54/10/54 55/11/55 52/8/52
f 56/1/56 57/2/57 58/3/58
f 59/5/59 60/4/60 56/1/56
f 61/6/61 62/7/62 60/4/60
f 63/8/63 64/9/64 62/7/62
f 65/10/65 66/11/66 63/8/63
f 67/1/67 68/2/68 69/3/69
f 70/5/70 71/4/71 68/2/68
f 72/6/72 73/7/73 71/4/71
f 74/8/74 75/9/75 73/7/73
f 76/10/76 77/11/77 74/8/74
f 78/1/78 79/2/79 80/3/80
f 81/5/81 82/4/82 78/1/78
f 83/6/83 84/7/84 82/4/82
f 85/8/85 86/9/86 84/7/84
f 87/10/87 88/11/88 85/8/85
f 89/1/89 90/2/90 91/3/91
f 92/5/92 93/4/93 89/1/89
f 94/6/94 95/7/95 93/4/93
f 96/8/96 97/9/97 95/7/95
f 98/10/98 99/11/99 96/8/96
f 100/1/100 101/2/101 102/12/102
f 103/5/103 104/4/104 100/1/100
f 105/6/105 106/7/106 104/4/104
f 107/8/107 108/9/108 105/6/105
f 109/10/109 110/11/110 108/9/108
f 111/1/111 112/2/112 113/3/113
f 114/5/114 115/4/115 111/1/111
f 116/6/116 117/7/117 114/5/114
f 118/8/118 119/9/119 116/6/116
f 120/10/120 121/11/121 119/9/119
f 122/1/122 123/2/123 124/12/124
f 125/5/125 126/4/126 123/2/123
f 127/6/127 128/7/128 125/5/125
f 129/8/129 130/9/130 127/6/127
f 131/10/131 132/11/132 130/9/130
f 2/2/2 133/12/133 3/3/3
f 2/2/2 1/1/1 5/4/4
f 4/5/5 6/6/6 5/4/4
f 9/9/9 7/7/7 6/6/6
f 11/11/11 9/9/9 8/8/8
f 134/3/134 12/1/12 14/12/14
f 16/4/16 13/2/13 12/1/12
f 18/7/18 16/4/16 15/5/15
f 20/9/20 18/7/18 17/6/17
f 19/8/19 21/10/21 20/9/20
f 135/3/135 23/1/23 25/12/25
f 23/1/23 26/5/26 24/2/24
f 29/7/29 27/4/27 26/5/26
f 31/9/31 29/7/29 28/6/28
f 30/8/30 32/10/32 31/9/31
f 35/2/35 136/12/136 36/3/36
f 34/1/34 37/5/37 35/2/35
f 40/7/40 38/4/38 37/5/37
f 39/6/39 41/8/41 40/7/40
f 44/11/44 42/9/42 41/8/41
f 46/2/46 137/12/137 47/3/47
f 45/1/45 48/5/48 46/2/46
f 48/5/48 50/6/50 49/4/49
f 50/6/50 52/8/52 51/7/51
f 55/11/55 53/9/53 52/8/52
f 57/2/57 138/12/138 58/3/58
f 60/4/60 57/2/57 56/1/56
f 59/5/59 61/6/61 60/4/60
f 61/6/61 63/8/63 62/7/62
f 66/11/66 64/9/64 63/8/63
f 68/2/68 139/12/139 69/3/69
f 67/1/67 70/5/70 68/2/68
f 70/5/70 72/6/72 71/4/71
f 72/6/72 74/8/74 73/7/73
f 77/11/77 75/9/75 74/8/74
f 79/2/79 140/12/140 80/3/80
f 82/4/82 79/2/79 78/1/78
f 81/5/81 83/6/83 82/4/82
f 83/6/83 85/8/85 84/7/84
f 88/11/88 86/9/86 85/8/85
f 90/2/90 141/12/141 91/3/91
f 93/4/93 90/2/90 89/1/89
f 92/5/92 94/6/94 93/4/93
f 94/6/94 96/8/96 95/7/95
f 99/11/99 97/9/97 96/8/96
f 142/3/142 100/1/100 102/12/102
f 104/4/104 101/2/101 100/1/100
f 103/5/103 105/6/105 104/4/104
f 108/9/108 106/7/106 105/6/105
f 107/8/107 109/10/109 108/9/108
f 112/2/112 143/12/143 113/3/113
f 115/4/115 112/2/112 111/1/111
f 117/7/117 115/4/115 114/5/114
f 119/9/119 117/7/117 116/6/116
f 118/8/118 120/10/120 119/9/119
f 144/3/144 122/1/122 124/12/124
f 122/1/122 125/5/125 123/2/123
f 128/7/128 126/4/126 125/5/125
f 130/9/130 128/7/128 127/6/127
f 129/8/129 131/10/131 130/9/130
